<svg aria-hidden="true" style="position: absolute; width: 0; height: 0; overflow: hidden;" version="1.1" xmlns="http://www.w3.org/2000/svg" xmlns:xlink="http://www.w3.org/1999/xlink">
<defs>
<symbol id="icon-close-btn" viewBox="0 0 32 32">
<path fill="#fff" style="fill: var(--color1, #fff)" d="M0.668 0.667c0.212-0.213 0.465-0.382 0.742-0.497s0.575-0.175 0.876-0.175c0.301 0 0.598 0.059 0.876 0.175s0.53 0.284 0.742 0.497l12.096 12.101 12.096-12.101c0.213-0.213 0.465-0.381 0.742-0.496s0.575-0.174 0.876-0.174c0.301 0 0.598 0.059 0.876 0.174s0.53 0.284 0.743 0.496 0.381 0.465 0.496 0.742c0.115 0.278 0.174 0.575 0.174 0.876s-0.059 0.598-0.174 0.876c-0.115 0.278-0.283 0.53-0.496 0.743l-12.101 12.096 12.101 12.096c0.213 0.213 0.381 0.465 0.496 0.742s0.174 0.575 0.174 0.876c0 0.301-0.059 0.598-0.174 0.876s-0.283 0.53-0.496 0.742-0.465 0.381-0.743 0.496c-0.277 0.115-0.575 0.174-0.876 0.174s-0.598-0.059-0.876-0.174c-0.278-0.115-0.53-0.283-0.742-0.496l-12.096-12.101-12.096 12.101c-0.213 0.213-0.465 0.381-0.742 0.496s-0.575 0.174-0.876 0.174-0.598-0.059-0.876-0.174c-0.278-0.115-0.53-0.283-0.742-0.496s-0.381-0.465-0.496-0.742c-0.115-0.278-0.174-0.575-0.174-0.876s0.059-0.598 0.174-0.876c0.115-0.278 0.284-0.53 0.496-0.742l12.101-12.096-12.101-12.096c-0.213-0.212-0.382-0.465-0.497-0.742s-0.175-0.575-0.175-0.876c0-0.301 0.059-0.598 0.175-0.876s0.284-0.53 0.497-0.742z"></path>
</symbol>
<symbol id="icon-next-btn" viewBox="0 0 19 32">
<path fill="#fff" style="fill: var(--color1, #fff)" d="M1.551 0.75c0.111-0.112 0.244-0.2 0.39-0.261s0.302-0.092 0.46-0.092c0.158 0 0.314 0.031 0.46 0.092s0.278 0.149 0.39 0.261l14.4 14.4c0.112 0.111 0.2 0.244 0.261 0.39s0.092 0.302 0.092 0.46c0 0.158-0.031 0.314-0.092 0.46s-0.149 0.278-0.261 0.39l-14.4 14.4c-0.225 0.225-0.531 0.352-0.85 0.352s-0.624-0.127-0.85-0.352c-0.225-0.225-0.352-0.531-0.352-0.85s0.127-0.624 0.352-0.85l13.553-13.55-13.553-13.55c-0.112-0.111-0.2-0.244-0.261-0.39s-0.092-0.302-0.092-0.46c0-0.158 0.031-0.314 0.092-0.46s0.149-0.278 0.261-0.39z"></path>
</symbol>
<symbol id="icon-prev-btn" viewBox="0 0 19 32">
<path fill="#fff" style="fill: var(--color1, #fff)" d="M17.65 0.75c0.112 0.111 0.2 0.244 0.261 0.39s0.092 0.302 0.092 0.46c0 0.158-0.031 0.314-0.092 0.46s-0.149 0.278-0.261 0.39l-13.553 13.55 13.553 13.55c0.225 0.225 0.352 0.531 0.352 0.85s-0.127 0.624-0.352 0.85c-0.225 0.225-0.531 0.352-0.85 0.352s-0.624-0.127-0.85-0.352l-14.4-14.4c-0.112-0.112-0.2-0.244-0.261-0.39s-0.092-0.302-0.092-0.46c0-0.158 0.031-0.314 0.092-0.46s0.149-0.278 0.261-0.39l14.4-14.4c0.112-0.112 0.244-0.2 0.39-0.261s0.302-0.092 0.46-0.092c0.158 0 0.314 0.031 0.46 0.092s0.278 0.149 0.39 0.261z"></path>
</symbol>
</defs>
</svg>
