<svg width="14" height="14" viewBox="0 0 14 14" fill="none" xmlns="http://www.w3.org/2000/svg">
<path d="M0.292078 0.291986C0.384969 0.19886 0.49532 0.124974 0.616811 0.0745611C0.738301 0.0241482 0.868544 -0.00180054 1.00008 -0.00180054C1.13161 -0.00180054 1.26186 0.0241482 1.38335 0.0745611C1.50484 0.124974 1.61519 0.19886 1.70808 0.291986L7.00008 5.58599L12.2921 0.291986C12.3851 0.199011 12.4954 0.125258 12.6169 0.0749397C12.7384 0.0246215 12.8686 -0.00127697 13.0001 -0.00127697C13.1316 -0.00127697 13.2618 0.0246215 13.3832 0.0749397C13.5047 0.125258 13.6151 0.199011 13.7081 0.291986C13.8011 0.384962 13.8748 0.49534 13.9251 0.616819C13.9754 0.738298 14.0013 0.868499 14.0013 0.999987C14.0013 1.13147 13.9754 1.26167 13.9251 1.38315C13.8748 1.50463 13.8011 1.61501 13.7081 1.70799L8.41408 6.99999L13.7081 12.292C13.8011 12.385 13.8748 12.4953 13.9251 12.6168C13.9754 12.7383 14.0013 12.8685 14.0013 13C14.0013 13.1315 13.9754 13.2617 13.9251 13.3832C13.8748 13.5046 13.8011 13.615 13.7081 13.708C13.6151 13.801 13.5047 13.8747 13.3832 13.925C13.2618 13.9754 13.1316 14.0012 13.0001 14.0012C12.8686 14.0012 12.7384 13.9754 12.6169 13.925C12.4954 13.8747 12.3851 13.801 12.2921 13.708L7.00008 8.41399L1.70808 13.708C1.6151 13.801 1.50472 13.8747 1.38325 13.925C1.26177 13.9754 1.13157 14.0012 1.00008 14.0012C0.86859 14.0012 0.73839 13.9754 0.616911 13.925C0.495432 13.8747 0.385054 13.801 0.292078 13.708C0.199102 13.615 0.125349 13.5046 0.0750313 13.3832C0.0247131 13.2617 -0.00118542 13.1315 -0.00118542 13C-0.00118542 12.8685 0.0247131 12.7383 0.0750313 12.6168C0.125349 12.4953 0.199102 12.385 0.292078 12.292L5.58608 6.99999L0.292078 1.70799C0.198952 1.6151 0.125066 1.50474 0.0746527 1.38325C0.0242398 1.26176 -0.00170898 1.13152 -0.00170898 0.999987C-0.00170898 0.868452 0.0242398 0.738209 0.0746527 0.616719C0.125066 0.495229 0.198952 0.384878 0.292078 0.291986Z" fill="white"/>
</svg>
