<svg width="12" height="20" viewBox="0 0 12 20" fill="none" xmlns="http://www.w3.org/2000/svg">
<path fill-rule="evenodd" clip-rule="evenodd" d="M0.96912 0.468998C1.03879 0.399153 1.12155 0.343739 1.21267 0.305929C1.30379 0.26812 1.40147 0.248657 1.50012 0.248657C1.59877 0.248657 1.69645 0.26812 1.78757 0.305929C1.87869 0.343739 1.96145 0.399153 2.03112 0.468998L11.0311 9.469C11.101 9.53867 11.1564 9.62143 11.1942 9.71255C11.232 9.80367 11.2515 9.90135 11.2515 10C11.2515 10.0986 11.232 10.1963 11.1942 10.2874C11.1564 10.3786 11.101 10.4613 11.0311 10.531L2.03112 19.531C1.89029 19.6718 1.69928 19.7509 1.50012 19.7509C1.30096 19.7509 1.10995 19.6718 0.96912 19.531C0.82829 19.3902 0.749172 19.1992 0.749172 19C0.749172 18.8008 0.82829 18.6098 0.96912 18.469L9.43962 10L0.96912 1.531C0.899275 1.46133 0.84386 1.37857 0.806051 1.28745C0.768241 1.19633 0.748779 1.09865 0.748779 0.999998C0.748779 0.901347 0.768241 0.803665 0.806051 0.712548C0.84386 0.62143 0.899275 0.538667 0.96912 0.468998Z" fill="white"/>
</svg>
